<mxfile host="app.diagrams.net" modified="2023-02-11T03:14:00.044Z" agent="5.0 (Windows NT 10.0; Win64; x64) AppleWebKit/537.36 (KHTML, like Gecko) Chrome/109.0.0.0 Safari/537.36" etag="A7kgs0jeqM8f0k6rnOPo" version="20.8.19" type="github">
  <diagram name="第 1 页" id="VaimyCer9sV02P6xJlCE">
    <mxGraphModel dx="875" dy="465" grid="1" gridSize="10" guides="1" tooltips="1" connect="1" arrows="1" fold="1" page="1" pageScale="1" pageWidth="827" pageHeight="1169" math="0" shadow="0">
      <root>
        <mxCell id="0" />
        <mxCell id="1" parent="0" />
        <mxCell id="fPhlpHJv96OOl3xVYBJm-9" value="" style="edgeStyle=orthogonalEdgeStyle;rounded=0;orthogonalLoop=1;jettySize=auto;html=1;" edge="1" parent="1" source="fPhlpHJv96OOl3xVYBJm-2" target="fPhlpHJv96OOl3xVYBJm-8">
          <mxGeometry relative="1" as="geometry" />
        </mxCell>
        <mxCell id="fPhlpHJv96OOl3xVYBJm-12" style="edgeStyle=orthogonalEdgeStyle;rounded=0;orthogonalLoop=1;jettySize=auto;html=1;" edge="1" parent="1" source="fPhlpHJv96OOl3xVYBJm-2">
          <mxGeometry relative="1" as="geometry">
            <mxPoint x="320" y="220" as="targetPoint" />
          </mxGeometry>
        </mxCell>
        <mxCell id="fPhlpHJv96OOl3xVYBJm-2" value="A123B456C789" style="rounded=0;whiteSpace=wrap;html=1;" vertex="1" parent="1">
          <mxGeometry x="140" y="80" width="180" height="60" as="geometry" />
        </mxCell>
        <mxCell id="fPhlpHJv96OOl3xVYBJm-11" value="" style="edgeStyle=orthogonalEdgeStyle;rounded=0;orthogonalLoop=1;jettySize=auto;html=1;" edge="1" parent="1" source="fPhlpHJv96OOl3xVYBJm-3" target="fPhlpHJv96OOl3xVYBJm-10">
          <mxGeometry relative="1" as="geometry" />
        </mxCell>
        <mxCell id="fPhlpHJv96OOl3xVYBJm-14" style="edgeStyle=orthogonalEdgeStyle;rounded=0;orthogonalLoop=1;jettySize=auto;html=1;" edge="1" parent="1" source="fPhlpHJv96OOl3xVYBJm-3">
          <mxGeometry relative="1" as="geometry">
            <mxPoint x="730" y="220" as="targetPoint" />
          </mxGeometry>
        </mxCell>
        <mxCell id="fPhlpHJv96OOl3xVYBJm-3" value="B8465C12A123" style="rounded=0;whiteSpace=wrap;html=1;" vertex="1" parent="1">
          <mxGeometry x="550" y="80" width="180" height="60" as="geometry" />
        </mxCell>
        <mxCell id="fPhlpHJv96OOl3xVYBJm-17" value="" style="edgeStyle=orthogonalEdgeStyle;rounded=0;orthogonalLoop=1;jettySize=auto;html=1;" edge="1" parent="1" source="fPhlpHJv96OOl3xVYBJm-8" target="fPhlpHJv96OOl3xVYBJm-16">
          <mxGeometry relative="1" as="geometry">
            <Array as="points">
              <mxPoint x="150" y="360" />
              <mxPoint x="150" y="360" />
            </Array>
          </mxGeometry>
        </mxCell>
        <mxCell id="fPhlpHJv96OOl3xVYBJm-8" value="A123B" style="whiteSpace=wrap;html=1;rounded=0;" vertex="1" parent="1">
          <mxGeometry x="90" y="220" width="120" height="60" as="geometry" />
        </mxCell>
        <mxCell id="fPhlpHJv96OOl3xVYBJm-18" style="edgeStyle=orthogonalEdgeStyle;rounded=0;orthogonalLoop=1;jettySize=auto;html=1;" edge="1" parent="1" source="fPhlpHJv96OOl3xVYBJm-10">
          <mxGeometry relative="1" as="geometry">
            <mxPoint x="150" y="340" as="targetPoint" />
            <Array as="points">
              <mxPoint x="530" y="320" />
              <mxPoint x="530" y="320" />
            </Array>
          </mxGeometry>
        </mxCell>
        <mxCell id="fPhlpHJv96OOl3xVYBJm-10" value="B8465" style="rounded=0;whiteSpace=wrap;html=1;" vertex="1" parent="1">
          <mxGeometry x="440" y="220" width="180" height="60" as="geometry" />
        </mxCell>
        <mxCell id="fPhlpHJv96OOl3xVYBJm-13" value="456C789" style="whiteSpace=wrap;html=1;rounded=0;" vertex="1" parent="1">
          <mxGeometry x="260" y="220" width="120" height="60" as="geometry" />
        </mxCell>
        <mxCell id="fPhlpHJv96OOl3xVYBJm-15" value="C12A123" style="rounded=0;whiteSpace=wrap;html=1;" vertex="1" parent="1">
          <mxGeometry x="647" y="220" width="180" height="60" as="geometry" />
        </mxCell>
        <mxCell id="fPhlpHJv96OOl3xVYBJm-16" value="A123BB8465" style="whiteSpace=wrap;html=1;rounded=0;" vertex="1" parent="1">
          <mxGeometry x="90" y="360" width="120" height="60" as="geometry" />
        </mxCell>
      </root>
    </mxGraphModel>
  </diagram>
</mxfile>
